<svg width="20" height="20" viewBox="0 0 20 20" fill="none" xmlns="http://www.w3.org/2000/svg">
<path d="M4.28598 0.36625C4.47374 0.131911 4.72836 0.000267029 4.99385 0.000267029C5.25934 0.000267029 5.51396 0.131911 5.70172 0.36625L9.70664 5.36625C9.88902 5.602 9.98994 5.91776 9.98766 6.2455C9.98538 6.57325 9.88008 6.88676 9.69444 7.11852C9.50881 7.35028 9.25769 7.48174 8.99517 7.48459C8.73265 7.48744 8.47973 7.36145 8.2909 7.13375L5.99508 4.2675V18.75C5.99508 19.0815 5.88959 19.3995 5.70183 19.6339C5.51406 19.8683 5.25939 20 4.99385 20C4.72831 20 4.47364 19.8683 4.28587 19.6339C4.0981 19.3995 3.99262 19.0815 3.99262 18.75V4.2675L1.6968 7.13375C1.50796 7.36145 1.25505 7.48744 0.99253 7.48459C0.730011 7.48174 0.47889 7.35028 0.293254 7.11852C0.107617 6.88676 0.00231907 6.57325 3.78491e-05 6.2455C-0.00224337 5.91776 0.098675 5.602 0.281057 5.36625L4.28598 0.36625ZM14.0049 15.7325V1.25C14.0049 0.918479 14.1104 0.600537 14.2982 0.366117C14.4859 0.131696 14.7406 0 15.0062 0C15.2717 0 15.5264 0.131696 15.7141 0.366117C15.9019 0.600537 16.0074 0.918479 16.0074 1.25V15.7325L18.3032 12.8663C18.492 12.6386 18.7449 12.5126 19.0075 12.5154C19.27 12.5183 19.5211 12.6497 19.7067 12.8815C19.8924 13.1132 19.9977 13.4268 20 13.7545C20.0022 14.0822 19.9013 14.398 19.7189 14.6337L15.714 19.6338C15.5263 19.8681 15.2716 19.9997 15.0062 19.9997C14.7407 19.9997 14.486 19.8681 14.2983 19.6338L10.2934 14.6337C10.111 14.398 10.0101 14.0822 10.0123 13.7545C10.0146 13.4268 10.1199 13.1132 10.3056 12.8815C10.4912 12.6497 10.7423 12.5183 11.0048 12.5154C11.2674 12.5126 11.5203 12.6386 11.7091 12.8663L14.0049 15.7325Z" fill="black"/>
</svg>
