<svg width="82" height="67" viewBox="0 0 82 67" fill="none" xmlns="http://www.w3.org/2000/svg">
<path d="M37.6641 0.75L38.1152 0.760742C40.3665 0.869976 42.5065 1.79852 44.127 3.37988C45.7432 4.95738 46.7219 7.06802 46.8896 9.30957C47.7355 8.72509 48.695 8.27579 49.7432 7.99414L58.7549 5.57812L59.1973 5.47168C60.2342 5.24766 61.3034 5.20313 62.3574 5.3418C63.5618 5.50028 64.7233 5.89462 65.7754 6.50195L66.1631 6.73926C67.0547 7.31415 67.8421 8.03841 68.4893 8.88184C69.2288 9.84564 69.7716 10.9457 70.0859 12.1191L80.9619 52.6953L81.0693 53.1416C81.5507 55.3788 81.186 57.7218 80.0361 59.7129C78.8862 61.7041 77.0389 63.1904 74.8604 63.8916L74.4209 64.0215L65.4043 66.4375C63.1832 67.0331 60.8258 66.7785 58.7891 65.7344L58.3857 65.5156C56.3938 64.3664 54.9061 62.5193 54.2041 60.3408L54.0742 59.9004L46.918 33.1895V57.0039C46.918 59.4571 45.9437 61.8102 44.209 63.5449C42.4743 65.2796 40.1212 66.2539 37.668 66.2539H31.332C29.1292 66.2575 27.0023 65.4697 25.332 64.041C23.7696 65.3775 21.8079 66.1537 19.7578 66.2451L19.332 66.2539H10C8.93675 66.2539 7.88275 66.0703 6.88379 65.7129L6.45898 65.5498C5.47681 65.1428 4.5731 64.57 3.78711 63.8574L3.45801 63.543C2.70645 62.7911 2.09108 61.9161 1.6377 60.957L1.45312 60.541C0.988525 59.4183 0.749475 58.215 0.75 57V19C0.75 16.5467 1.72427 14.1937 3.45898 12.459L3.79199 12.1426C5.48877 10.6064 7.70025 9.75 10 9.75H19.332C20.2889 9.75 21.2142 9.89473 22.082 10.165V10C22.082 7.54675 23.0563 5.1937 24.791 3.45898L25.124 3.14258C26.8208 1.60638 29.0323 0.75 31.332 0.75H37.6641ZM62.5293 12.1367C61.977 11.8179 61.3338 11.7024 60.71 11.8047L60.4443 11.8613L51.4287 14.2734C51.08 14.367 50.7532 14.5282 50.4668 14.748C50.1803 14.9681 49.9393 15.2427 49.7588 15.5557C49.5783 15.8686 49.462 16.2141 49.415 16.5723C49.3797 16.8422 49.3818 17.1142 49.4248 17.3799L49.4814 17.6436L60.3496 58.2109L60.4326 58.4688C60.5278 58.7212 60.6593 58.9591 60.8242 59.1738C61.0442 59.4603 61.3189 59.7004 61.6318 59.8809C61.9447 60.0613 62.2903 60.1786 62.6484 60.2256C63.0064 60.2725 63.3701 60.2479 63.7188 60.1543H63.7197L72.7314 57.7383L72.9902 57.6553C73.5814 57.4318 74.0806 57.0101 74.3994 56.458C74.7637 55.827 74.8628 55.0769 74.6748 54.373L63.8105 13.8047C63.6215 13.1009 63.1604 12.5011 62.5293 12.1367ZM10 16.25C9.27065 16.25 8.57139 16.5399 8.05566 17.0557C7.53994 17.5714 7.25 18.2707 7.25 19V57C7.25 58.5179 8.48207 59.75 10 59.75H19.332L19.5996 59.7373C20.2185 59.6771 20.8016 59.408 21.251 58.9707C21.7646 58.4707 22.0629 57.7898 22.082 57.0732V18.9189L22.0615 18.6533C21.9944 18.1252 21.775 17.6278 21.4307 17.2217L21.249 17.0264C20.7997 16.5902 20.2167 16.3226 19.5986 16.2627L19.332 16.25H10ZM31.332 7.25C30.6027 7.25 29.9034 7.53995 29.3877 8.05566C28.872 8.57139 28.582 9.27065 28.582 10V57.0732L28.6016 57.3398C28.6784 57.9571 28.9636 58.5332 29.4131 58.9707C29.9267 59.4706 30.6153 59.7503 31.332 59.75H37.6641C38.3934 59.75 39.0927 59.46 39.6084 58.9443C40.1241 58.4286 40.4141 57.7293 40.4141 57V10C40.4141 9.27067 40.1241 8.57139 39.6084 8.05566C39.0927 7.53995 38.3934 7.25002 37.6641 7.25H31.332Z" fill="black" stroke="black" stroke-width="0.5"/>
</svg>
