<svg width="35" height="35" viewBox="0 0 35 35" fill="none" xmlns="http://www.w3.org/2000/svg">
<path d="M17.5 0L35 12.7055L32.2867 14.6758V25.0922H29.3293V16.8229L27.8507 17.8964V27.5696C27.8507 29.9974 26.3513 31.8884 24.5192 33.0842C22.6487 34.3014 20.1646 35 17.5 35C14.8354 35 12.3498 34.3014 10.4808 33.0842C8.64723 31.8884 7.14935 29.9958 7.14935 27.568V17.8964L0 12.7055L17.5 0ZM10.1067 20.0434V27.5696C10.1067 28.3343 10.5946 29.3318 11.9713 30.2286C13.3139 31.104 15.2643 31.6985 17.5 31.6985C19.7357 31.6985 21.6861 31.104 23.0287 30.2286C24.4068 29.3318 24.8918 28.3343 24.8918 27.5696V20.0434L17.4985 25.411L10.1067 20.0434ZM29.5733 12.7055L17.5 3.94064L5.4267 12.7055L17.5 21.4704L29.5733 12.7055Z" fill="black"/>
</svg>
