<svg width="35" height="35" viewBox="0 0 35 35" fill="none" xmlns="http://www.w3.org/2000/svg">
<path d="M17.5 26.25C17.9958 26.25 18.4117 26.082 18.7477 25.746C19.0837 25.41 19.2512 24.9947 19.25 24.5V17.5C19.25 17.0042 19.082 16.5888 18.746 16.254C18.41 15.9192 17.9947 15.7512 17.5 15.75C17.0053 15.7488 16.59 15.9168 16.254 16.254C15.918 16.5912 15.75 17.0065 15.75 17.5V24.5C15.75 24.9958 15.918 25.4117 16.254 25.7477C16.59 26.0837 17.0053 26.2512 17.5 26.25ZM17.5 12.25C17.9958 12.25 18.4117 12.082 18.7477 11.746C19.0837 11.41 19.2512 10.9947 19.25 10.5C19.2488 10.0053 19.0808 9.59 18.746 9.254C18.4112 8.918 17.9958 8.75 17.5 8.75C17.0042 8.75 16.5888 8.918 16.254 9.254C15.9192 9.59 15.7512 10.0053 15.75 10.5C15.7488 10.9947 15.9168 11.4106 16.254 11.7477C16.5912 12.0849 17.0065 12.2523 17.5 12.25ZM17.5 35C15.0792 35 12.8042 34.5403 10.675 33.621C8.54583 32.7017 6.69375 31.4551 5.11875 29.8812C3.54375 28.3074 2.29717 26.4553 1.379 24.325C0.460835 22.1947 0.00116888 19.9197 2.21519e-06 17.5C-0.00116445 15.0803 0.458502 12.8053 1.379 10.675C2.2995 8.54467 3.54608 6.69258 5.11875 5.11875C6.69141 3.54492 8.5435 2.29833 10.675 1.379C12.8065 0.459667 15.0815 0 17.5 0C19.9185 0 22.1935 0.459667 24.325 1.379C26.4565 2.29833 28.3086 3.54492 29.8812 5.11875C31.4539 6.69258 32.7011 8.54467 33.6227 10.675C34.5444 12.8053 35.0035 15.0803 35 17.5C34.9965 19.9197 34.5368 22.1947 33.621 24.325C32.7051 26.4553 31.4586 28.3074 29.8812 29.8812C28.3039 31.4551 26.4518 32.7022 24.325 33.6227C22.1982 34.5432 19.9232 35.0023 17.5 35ZM17.5 31.5C21.4083 31.5 24.7187 30.1437 27.4312 27.4312C30.1437 24.7187 31.5 21.4083 31.5 17.5C31.5 13.5917 30.1437 10.2812 27.4312 7.56875C24.7187 4.85625 21.4083 3.5 17.5 3.5C13.5917 3.5 10.2812 4.85625 7.56875 7.56875C4.85625 10.2812 3.5 13.5917 3.5 17.5C3.5 21.4083 4.85625 24.7187 7.56875 27.4312C10.2812 30.1437 13.5917 31.5 17.5 31.5Z" fill="black"/>
</svg>
