<svg width="82" height="70" viewBox="0 0 82 70" fill="none" xmlns="http://www.w3.org/2000/svg">
<path d="M14 18.5C14 17.3065 14.4741 16.1619 15.318 15.318C16.1619 14.4741 17.3065 14 18.5 14H63.5C64.6935 14 65.8381 14.4741 66.682 15.318C67.5259 16.1619 68 17.3065 68 18.5V51.5C68 52.6935 67.5259 53.8381 66.682 54.682C65.8381 55.5259 64.6935 56 63.5 56C62.3065 56 61.1619 55.5259 60.318 54.682C59.4741 53.8381 59 52.6935 59 51.5V23H18.5C17.3065 23 16.1619 22.5259 15.318 21.682C14.4741 20.8381 14 19.6935 14 18.5ZM81.5 8V62C81.5 63.9891 80.7098 65.8968 79.3033 67.3033C77.8968 68.7098 75.9891 69.5 74 69.5H48.9725C48.0245 69.4998 47.1007 69.2002 46.3331 68.644C45.5654 68.0878 44.993 67.3033 44.6975 66.4025C43.7561 63.7887 42.0311 61.529 39.758 59.9317C37.485 58.3344 34.7744 57.4772 31.9963 57.4772C29.2181 57.4772 26.5075 58.3344 24.2345 59.9317C21.9614 61.529 20.2364 63.7887 19.295 66.4025C18.9999 67.3021 18.4287 68.0857 17.6625 68.6418C16.8963 69.1979 15.9742 69.4982 15.0275 69.5H8C6.01088 69.5 4.10322 68.7098 2.6967 67.3033C1.29018 65.8968 0.5 63.9891 0.5 62V8C0.5 6.01088 1.29018 4.10322 2.6967 2.6967C4.10322 1.29018 6.01088 0.5 8 0.5H74C75.9891 0.5 77.8968 1.29018 79.3033 2.6967C80.7098 4.10322 81.5 6.01088 81.5 8ZM32 48.5C33.1867 48.5 34.3467 48.1481 35.3334 47.4888C36.3201 46.8295 37.0892 45.8925 37.5433 44.7961C37.9974 43.6997 38.1162 42.4933 37.8847 41.3295C37.6532 40.1656 37.0818 39.0965 36.2426 38.2574C35.4035 37.4182 34.3344 36.8468 33.1705 36.6153C32.0067 36.3838 30.8003 36.5026 29.7039 36.9567C28.6075 37.4108 27.6705 38.1799 27.0112 39.1666C26.3519 40.1533 26 41.3133 26 42.5C26 44.0913 26.6321 45.6174 27.7574 46.7426C28.8826 47.8679 30.4087 48.5 32 48.5ZM72.5 9.5H9.5V60.5H12.095C13.988 56.9264 16.8062 53.9269 20.255 51.815C18.5002 49.606 17.4039 46.947 17.092 44.1432C16.78 41.3393 17.2652 38.5043 18.4916 35.9637C19.718 33.4231 21.636 31.2799 24.0255 29.7801C26.4149 28.2803 29.1789 27.4847 32 27.4847C34.8211 27.4847 37.5851 28.2803 39.9745 29.7801C42.364 31.2799 44.282 33.4231 45.5084 35.9637C46.7349 38.5043 47.22 41.3393 46.908 44.1432C46.5961 46.947 45.4998 49.606 43.745 51.815C47.1938 53.9269 50.012 56.9264 51.905 60.5H72.5V9.5Z" fill="black"/>
</svg>
