<svg width="82" height="79" viewBox="0 0 82 79" fill="none" xmlns="http://www.w3.org/2000/svg">
<path d="M78.4214 12.7325L42.4214 0.732495C41.4995 0.421281 40.5009 0.421281 39.5789 0.732495L3.57892 12.7325C2.71993 13.017 1.96665 13.5539 1.41743 14.273C0.868206 14.9921 0.548545 15.8602 0.500173 16.7637C0.496036 16.8424 0.496036 16.9213 0.500173 17V47C0.500173 48.1935 0.974279 49.3381 1.81819 50.182C2.66211 51.0259 3.8067 51.5 5.00017 51.5C6.19365 51.5 7.33824 51.0259 8.18215 50.182C9.02607 49.3381 9.50017 48.1935 9.50017 47V23.2437L18.3914 26.2062C15.632 31.4881 14.812 37.5703 16.0741 43.3944C17.3362 49.2184 20.6005 54.4155 25.2989 58.0812C19.1505 61.1132 13.947 65.7669 10.2502 71.54C9.91726 72.0348 9.68602 72.5908 9.56989 73.1758C9.45376 73.7607 9.45506 74.3629 9.57372 74.9474C9.69237 75.5318 9.92601 76.0868 10.2611 76.5802C10.5961 77.0735 11.0259 77.4954 11.5254 77.8212C12.0249 78.147 12.5842 78.3702 13.1707 78.478C13.7573 78.5857 14.3594 78.5758 14.9421 78.4488C15.5248 78.3218 16.0764 78.0803 16.5649 77.7382C17.0534 77.3961 17.4691 76.9604 17.7877 76.4562C23.1389 68.2212 31.6252 63.5 41.0002 63.5C50.3752 63.5 58.8614 68.2212 64.2314 76.4562C64.55 76.9604 64.9657 77.3961 65.4542 77.7382C65.9427 78.0803 66.4943 78.3218 67.077 78.4488C67.6597 78.5758 68.2618 78.5857 68.8484 78.478C69.4349 78.3702 69.9942 78.147 70.4937 77.8212C70.9932 77.4954 71.423 77.0735 71.758 76.5802C72.0931 76.0868 72.3267 75.5318 72.4454 74.9474C72.564 74.3629 72.5653 73.7607 72.4492 73.1758C72.3331 72.5908 72.1018 72.0348 71.7689 71.54C68.0685 65.7602 62.8581 61.1022 56.7014 58.07C61.3998 54.4043 64.6641 49.2072 65.9262 43.3831C67.1883 37.5591 66.3683 31.4769 63.6089 26.195L78.4214 21.2562C79.3163 20.9569 80.0944 20.3837 80.6457 19.6179C81.197 18.8521 81.4937 17.9324 81.4937 16.9887C81.4937 16.0451 81.197 15.1254 80.6457 14.3596C80.0944 13.5938 79.3163 13.0206 78.4214 12.7212V12.7325ZM41.0002 9.73249L62.7689 17L41.0002 24.2562L19.2502 17L41.0002 9.73249ZM57.5002 38C57.5007 40.5629 56.9041 43.0906 55.7578 45.3829C54.6116 47.6751 52.9471 49.6688 50.8963 51.206C48.8456 52.7431 46.465 53.7814 43.9432 54.2385C41.4214 54.6956 38.8278 54.559 36.368 53.8395C33.9082 53.1201 31.6498 51.8374 29.7719 50.0934C27.894 48.3494 26.4481 46.1918 25.549 43.7919C24.6498 41.3919 24.3221 38.8155 24.5918 36.2668C24.8615 33.7182 25.7212 31.2674 27.1027 29.1087L39.5789 33.2675C40.5011 33.5773 41.4992 33.5773 42.4214 33.2675L54.8977 29.1087C56.5994 31.7618 57.5027 34.8481 57.5002 38Z" fill="black"/>
</svg>
